<svg width="24" height="24" viewBox="0 0 24 24" fill="none" xmlns="http://www.w3.org/2000/svg">
<path fill-rule="evenodd" clip-rule="evenodd" d="M14.4359 4.22602C15.4871 4.56105 16.4535 5.14552 17.2472 5.9425C18.5496 7.25025 19.2805 9.02298 19.2805 10.8705C19.2805 13.6734 19.7548 15.2205 20.244 16.1188C20.6359 16.8386 20.826 17.7196 20.502 18.5104C20.1417 19.3899 19.2959 19.8153 18.3492 19.8153H15.4143L15.4131 19.82C15.2356 20.5016 14.8368 21.105 14.2793 21.5358C13.7218 21.9665 13.0371 22.2002 12.3325 22.2002C11.6279 22.2002 10.9432 21.9665 10.3857 21.5358C9.82818 21.105 9.42942 20.5016 9.25189 19.82L9.25067 19.8153H6.31546C5.36991 19.8153 4.52363 19.3913 4.16376 18.5111C3.84052 17.7205 4.03198 16.8403 4.42314 16.1218C4.91152 15.2247 5.38518 13.6775 5.38518 10.8705C5.38518 9.02298 6.11606 7.25025 7.41849 5.9425C8.21216 5.14558 9.17849 4.56114 10.2296 4.2261C10.2705 3.1003 11.1964 2.2002 12.3327 2.2002C13.469 2.2002 14.3949 3.10026 14.4359 4.22602ZM12.3328 5.91843C13.6382 5.91843 14.891 6.43904 15.8154 7.36722C16.7399 8.29556 17.2601 9.55562 17.2601 10.8705C17.2601 13.888 17.769 15.7979 18.4694 17.0842C18.6935 17.4958 18.644 17.7168 18.6323 17.7452L18.6282 17.7479C18.6116 17.7576 18.5336 17.7958 18.3492 17.7958H6.31546C6.13065 17.7958 6.05282 17.7576 6.03657 17.7481L6.03372 17.7465C6.02212 17.7166 5.97489 17.4965 6.19779 17.087C6.89768 15.8014 7.40555 13.8911 7.40555 10.8705C7.40555 9.55562 7.92578 8.29556 8.85034 7.36722C9.77474 6.43904 11.0275 5.91843 12.3328 5.91843Z" fill="#3A4757"/>
</svg>
